PathFileType	4	(x/y/z)	S04_M20_T19.trc
DataRate	CameraRate	NumFrames	NumMarkers	Units	OrigDataRate	OrigDataStartFrame	OrigNumFrames
240	240	8	51	mm	240	1	532
Frame#	Time	Sternum			R.Acromium			L.Acromium			Top.Head			R.ASIS			L.ASIS			R.PSIS			L.PSIS			R.Great.Tro			L.Great.Tro			R.Iliac.Crest			L.Iliac.Crest			V.Sacral			R.Thigh.Upper.Post			R.Thigh.Lower.Ant			R.Thigh.Lower.Post			R.Thigh.Upper.Ant			R.Knee.Lat			R.Knee.Med			R.Shank.Upper.Post			R.Shank.Lower.Ant			R.Shank.Lower.Post			R.Shank.Upper.Ant			R.Ankle.Lat			R.Ankle.Med			R.Heel.Upper			R.Heel.Med			R.Heel.Lat			R.Toe.Lat			R.Toe.Med			R.Toe.Tip			L.Thigh.Upper.Post			L.Thigh.Lower.Ant			L.Thigh.Lower.Post			L.Thigh.Upper.Ant			L.Knee.Lat			L.Knee.Med			L.Shank.Upper.Post			L.Shank.Lower.Ant			L.Shank.Lower.Post			L.Shank.Upper.Ant			L.Ankle.Lat			L.Ankle.Med			L.Heel.Upper			L.Heel.Med			L.Heel.Lat			L.Toe.Lat			L.Toe.Med			L.Toe.Tip			Cervical.Spine			Back			
		X1	Y1	Z1	X2	Y2	Z2	X3	Y3	Z3	X4	Y4	Z4	X5	Y5	Z5	X6	Y6	Z6	X7	Y7	Z7	X8	Y8	Z8	X9	Y9	Z9	X10	Y10	Z10	X11	Y11	Z11	X12	Y12	Z12	X13	Y13	Z13	X14	Y14	Z14	X15	Y15	Z15	X16	Y16	Z16	X17	Y17	Z17	X18	Y18	Z18	X19	Y19	Z19	X20	Y20	Z20	X21	Y21	Z21	X22	Y22	Z22	X23	Y23	Z23	X24	Y24	Z24	X25	Y25	Z25	X26	Y26	Z26	X27	Y27	Z27	X28	Y28	Z28	X29	Y29	Z29	X30	Y30	Z30	X31	Y31	Z31	X32	Y32	Z32	X33	Y33	Z33	X34	Y34	Z34	X35	Y35	Z35	X36	Y36	Z36	X37	Y37	Z37	X38	Y38	Z38	X39	Y39	Z39	X40	Y40	Z40	X41	Y41	Z41	X42	Y42	Z42	X43	Y43	Z43	X44	Y44	Z44	X45	Y45	Z45	X46	Y46	Z46	X47	Y47	Z47	X48	Y48	Z48	X49	Y49	Z49	X50	Y50	Z50	X51	Y51	Z51	

1	0	-739.08	1245	296.85	-863.64	1476.1	470.37	-867.63	1463.4	119.76	-856.94	1800.9	282.84	-795.25	962.35	446.12	-752.98	975.15	196.29	-988.11	1010.8	307.52	-967.99	1011	230.12	-907.11	895.57	490.11	-855.38	893.62	110.59	-885.19	1058.1	473.51	-853.68	1057.8	128.89	-999.89	969.54	268.18	-982.54	652.78	460.99	-932.02	552.5	429.23	-1007.1	566.65	445.12	-893.1	653.81	456.27	-1009.9	493.72	434.32	-1023.4	500.99	297.57	-1156	303.54	407.82	-1114.6	211.15	363.67	-1177.5	239.36	384.67	-1096.1	275.88	393.48	-1199.2	127.36	358.13	-1182.1	142.89	271.43	-1272.1	110.42	301.9	-1268.1	78.161	272.23	-1272.9	78.569	335.83	-1108	41.614	386.87	-1072	38.677	267.78	-1007	43.367	315.78	-790.68	653.93	128.9	-677.07	599.97	138.5	-746.16	577.79	147.18	-725.9	673.51	116.85	-669.55	513.65	154.13	-658.62	507.98	284.62	-660.83	314.66	168.06	-554.34	276.97	159.22	-613.31	252.5	173.31	-599.22	338.96	151.38	-481.73	135.26	180.8	-480.64	154.01	272.04	-526.52	65.504	235.39	-503.47	54.006	269.49	-506.69	43.039	208.48	-355.26	141.26	155.19	-331.47	179	264.49	-296.84	217.49	211.14	-913.12	1523.2	299.68	-999.06	1268.2	274.84
2	0.0041667	-734.26	1244.4	296.55	-858.76	1475.7	469.86	-862.48	1462.7	119.26	-852.19	1800.3	282.17	-790.51	961.84	446.13	-747.89	974.7	196.32	-983.2	1010.1	307.2	-962.98	1010.4	229.82	-902.56	895.08	489.94	-850.04	893.19	110.5	-880.53	1057.7	473.3	-848.74	1057.1	128.82	-994.9	968.88	267.85	-978.43	652.49	460.9	-928.09	552.14	429.33	-1003.2	566.38	444.82	-888.99	653.4	456.39	-1006.2	493.48	434.31	-1019.4	500.72	297.61	-1153.7	304.34	407.83	-1112.9	211.62	363.77	-1175.6	240.28	384.72	-1094	276.26	393.63	-1198.2	128.46	358.25	-1180.6	143.75	271.48	-1271.2	112.15	302.02	-1267.4	79.935	272.29	-1272.2	80.218	335.88	-1107.7	41.738	386.91	-1071.8	38.756	267.8	-1006.8	43.246	315.73	-785.04	653.65	128.93	-671.33	599.84	138.78	-740.49	577.54	147.26	-720.26	673.29	117.11	-664.04	513.27	154.37	-653.39	507.53	284.7	-656.55	314.35	167.77	-550.85	275.58	159.7	-610	251.61	173.48	-595.1	337.93	151.68	-479.58	133.45	181.25	-478.54	152.04	272.51	-524.79	63.854	235.71	-501.89	52.157	269.8	-504.96	41.495	208.8	-353.14	138.97	155.78	-329.28	176.29	265.29	-294.38	214.71	212.08	-908.33	1522.6	299.17	-994.26	1267.6	274.5
3	0.0083333	-729.21	1243.8	296.24	-853.66	1475.2	469.33	-857.13	1462.1	118.75	-847.23	1799.7	281.46	-785.55	961.31	446.13	-742.55	974.25	196.35	-978.05	1009.5	306.86	-957.74	1009.8	229.51	-897.79	894.56	489.76	-844.45	892.75	110.4	-875.64	1057.2	473.09	-843.56	1056.3	128.74	-989.67	968.2	267.5	-974.12	652.19	460.8	-923.96	551.77	429.43	-999.01	566.11	444.51	-884.67	652.97	456.5	-1002.3	493.24	434.3	-1015.2	500.43	297.66	-1151.2	305.18	407.84	-1111.2	212.12	363.88	-1173.7	241.25	384.79	-1091.7	276.66	393.78	-1197.1	129.62	358.39	-1179.1	144.66	271.55	-1270.2	113.97	302.15	-1266.7	81.811	272.35	-1271.5	81.956	335.94	-1107.4	41.87	386.95	-1071.7	38.839	267.82	-1006.7	43.122	315.67	-779.17	653.36	128.96	-665.36	599.69	139.08	-734.6	577.29	147.35	-714.38	673.06	117.38	-658.31	512.88	154.63	-647.97	507.04	284.77	-652.14	314.02	167.49	-547.22	274.14	160.19	-606.58	250.68	173.66	-590.83	336.87	152	-477.36	131.57	181.73	-476.39	149.99	273	-523.04	62.208	236.04	-500.3	50.289	270.12	-503.23	39.935	209.12	-350.95	136.56	156.42	-327.02	173.43	266.16	-291.82	211.76	213.09	-903.33	1522.1	298.63	-989.25	1267.1	274.15
4	0.0125	-723.98	1243.3	295.91	-848.39	1474.8	468.79	-851.62	1461.3	118.21	-842.11	1799.1	280.73	-780.39	960.76	446.13	-737.01	973.79	196.37	-972.7	1008.8	306.51	-952.28	1009.1	229.19	-892.82	894.03	489.56	-838.64	892.31	110.29	-870.56	1056.7	472.87	-838.18	1055.6	128.65	-984.23	967.51	267.13	-969.63	651.88	460.7	-919.66	551.39	429.54	-994.68	565.84	444.2	-880.17	652.52	456.62	-998.27	492.99	434.29	-1010.9	500.13	297.71	-1148.5	306.06	407.87	-1109.4	212.65	364	-1171.6	242.27	384.86	-1089.3	277.08	393.95	-1196	130.84	358.53	-1177.5	145.62	271.64	-1269.2	115.89	302.3	-1265.9	83.783	272.42	-1270.8	83.778	336.01	-1107.2	42.008	386.99	-1071.5	38.925	267.85	-1006.5	42.997	315.62	-773.1	653.08	129	-659.21	599.53	139.4	-728.52	577.02	147.45	-708.29	672.83	117.66	-652.4	512.47	154.9	-642.38	506.54	284.84	-647.62	313.66	167.22	-543.49	272.67	160.69	-603.07	249.73	173.84	-586.42	335.78	152.32	-475.09	129.66	182.22	-474.21	147.89	273.53	-521.3	60.593	236.37	-498.74	48.427	270.43	-501.52	38.379	209.44	-348.72	134.05	157.12	-324.72	170.43	267.08	-289.2	208.67	214.17	-898.16	1521.5	298.08	-984.05	1266.5	273.79
5	0.016667	-718.59	1242.7	295.57	-842.98	1474.3	468.23	-845.97	1460.6	117.66	-836.85	1798.5	279.98	-775.05	960.2	446.13	-731.28	973.34	196.4	-967.17	1008.1	306.15	-946.64	1008.5	228.86	-887.68	893.49	489.36	-832.63	891.89	110.18	-865.3	1056.2	472.65	-832.61	1054.8	128.55	-978.61	966.82	266.75	-964.97	651.56	460.6	-915.2	550.99	429.65	-990.2	565.55	443.9	-875.5	652.06	456.73	-994.07	492.72	434.28	-1006.3	499.82	297.76	-1145.8	306.99	407.9	-1107.5	213.22	364.14	-1169.4	243.35	384.94	-1086.9	277.52	394.12	-1194.9	132.1	358.69	-1175.8	146.64	271.74	-1268.2	117.89	302.46	-1265.1	85.848	272.5	-1270	85.681	336.08	-1106.8	42.153	387.03	-1071.3	39.015	267.88	-1006.3	42.873	315.57	-766.87	652.81	129.03	-652.91	599.35	139.72	-722.3	576.76	147.55	-702.05	672.58	117.94	-646.36	512.05	155.17	-636.67	506.02	284.89	-643.04	313.28	166.97	-539.67	271.16	161.21	-599.49	248.76	174.02	-581.91	334.68	152.67	-472.78	127.72	182.74	-472	145.74	274.08	-519.56	59.037	236.68	-497.21	46.596	270.74	-499.86	36.85	209.75	-346.45	131.45	157.86	-322.41	167.32	268.06	-286.51	205.45	215.32	-892.85	1520.9	297.5	-978.69	1265.9	273.43
6	0.020833	-713.05	1242.2	295.21	-837.45	1473.9	467.67	-840.22	1459.9	117.09	-831.47	1797.9	279.2	-769.57	959.63	446.13	-725.39	972.91	196.41	-961.48	1007.4	305.78	-940.84	1007.9	228.52	-882.38	892.93	489.14	-826.46	891.47	110.05	-859.89	1055.7	472.42	-826.88	1054.1	128.43	-972.83	966.14	266.36	-960.16	651.24	460.5	-910.59	550.58	429.76	-985.56	565.26	443.61	-870.69	651.59	456.84	-989.72	492.45	434.27	-1001.6	499.5	297.81	-1143	307.95	407.94	-1105.5	213.81	364.29	-1167.2	244.47	385.03	-1084.3	277.98	394.29	-1193.6	133.42	358.86	-1174.1	147.71	271.87	-1267	119.97	302.63	-1264.2	88.004	272.58	-1269.1	87.661	336.16	-1106.5	42.303	387.08	-1071.2	39.107	267.91	-1006.2	42.75	315.52	-760.52	652.54	129.05	-646.5	599.15	140.04	-715.97	576.5	147.66	-695.67	672.33	118.22	-640.22	511.62	155.46	-630.88	505.48	284.94	-638.42	312.89	166.74	-535.78	269.64	161.73	-595.85	247.78	174.19	-577.32	333.56	153.03	-470.45	125.77	183.26	-469.78	143.57	274.66	-517.86	57.568	236.99	-495.74	44.822	271.04	-498.27	35.371	210.06	-344.17	128.77	158.66	-320.08	164.1	269.09	-283.78	202.1	216.53	-887.43	1520.3	296.91	-973.2	1265.2	273.05
7	0.025	-707.4	1241.6	294.84	-831.82	1473.4	467.09	-834.4	1459.2	116.5	-826	1797.3	278.41	-763.95	959.06	446.12	-719.36	972.48	196.42	-955.64	1006.8	305.4	-934.9	1007.3	228.18	-876.95	892.36	488.92	-820.16	891.08	109.91	-854.33	1055.2	472.19	-821.01	1053.3	128.31	-966.92	965.48	265.95	-955.22	650.92	460.39	-905.84	550.16	429.88	-980.79	564.96	443.33	-865.73	651.11	456.94	-985.23	492.17	434.27	-996.82	499.17	297.87	-1140.1	308.95	407.99	-1103.4	214.44	364.46	-1164.9	245.64	385.14	-1081.7	278.46	394.48	-1192.3	134.78	359.05	-1172.4	148.82	272.03	-1265.8	122.13	302.82	-1263.3	90.249	272.68	-1268.2	89.717	336.24	-1106.2	42.459	387.13	-1071	39.202	267.94	-1006	42.63	315.47	-754.07	652.29	129.08	-640.01	598.94	140.37	-709.56	576.24	147.77	-689.2	672.08	118.49	-634.02	511.18	155.75	-625.05	504.93	284.98	-633.78	312.47	166.53	-531.84	268.12	162.26	-592.17	246.8	174.36	-572.67	332.45	153.4	-468.1	123.84	183.79	-467.56	141.4	275.26	-516.18	56.214	237.28	-494.32	43.131	271.33	-496.76	33.968	210.35	-341.87	126.03	159.51	-317.75	160.78	270.17	-281.01	198.64	217.81	-881.91	1519.7	296.31	-967.59	1264.6	272.67
8	0.029167	-701.65	1241.1	294.46	-826.12	1473	466.51	-828.53	1458.5	115.91	-820.46	1796.8	277.61	-758.21	958.48	446.11	-713.22	972.09	196.43	-949.69	1006.1	305.02	-928.85	1006.7	227.83	-871.4	891.79	488.68	-813.73	890.72	109.76	-848.66	1054.7	471.96	-815.03	1052.6	128.17	-960.89	964.84	265.54	-950.16	650.59	460.29	-900.97	549.73	430	-975.9	564.66	443.07	-860.65	650.62	457.04	-980.63	491.88	434.27	-991.87	498.83	297.92	-1137.1	309.98	408.05	-1101.3	215.1	364.64	-1162.4	246.86	385.26	-1079	278.97	394.67	-1191	136.18	359.25	-1170.6	149.99	272.22	-1264.6	124.38	303.02	-1262.4	92.584	272.78	-1267.3	91.849	336.33	-1105.8	42.621	387.18	-1070.8	39.301	267.98	-1005.8	42.513	315.42	-747.57	652.05	129.1	-633.49	598.72	140.71	-703.12	575.99	147.88	-682.66	671.83	118.77	-627.77	510.75	156.04	-619.2	504.37	285.01	-629.13	312.05	166.34	-527.85	266.62	162.8	-588.46	245.84	174.52	-567.98	331.35	153.77	-465.73	121.93	184.33	-465.33	139.25	275.88	-514.54	54.999	237.55	-492.97	41.546	271.61	-495.32	32.663	210.63	-339.57	123.23	160.4	-315.43	157.39	271.29	-278.2	195.09	219.13	-876.33	1519.1	295.69	-961.88	1263.9	272.29
